<svg width="14" height="9" viewBox="0 0 14 9" fill="none" xmlns="http://www.w3.org/2000/svg">
<path d="M10.89 3.3975C10.5019 1.45687 8.7975 0 6.75 0C5.12437 0 3.7125 0.9225 3.00937 2.2725C1.31625 2.4525 0 3.88688 0 5.625C0 7.48688 1.51313 9 3.375 9H10.6875C12.24 9 13.5 7.74 13.5 6.1875C13.5 4.7025 12.3469 3.49875 10.89 3.3975Z" fill="#17EE5F"/>
<path d="M6.28251 5.88047L8.3991 3.12828C8.46487 3.04276 8.54858 3 8.65022 3C8.75187 3 8.83558 3.04276 8.90134 3.12828C8.96711 3.2138 9 3.32264 9 3.45481C9 3.58698 8.96711 3.69582 8.90134 3.78134L6.53363 6.86006C6.46188 6.95335 6.37818 7 6.28251 7C6.18685 7 6.10314 6.95335 6.03139 6.86006L5.09865 5.64723C5.03288 5.56171 5 5.45287 5 5.3207C5 5.18853 5.03288 5.07969 5.09865 4.99417C5.16442 4.90865 5.24813 4.86589 5.34978 4.86589C5.45142 4.86589 5.53513 4.90865 5.6009 4.99417L6.28251 5.88047Z" fill="white"/>
</svg>
